<?xml version='1.0' encoding='UTF-8' standalone='no'?>
<svg xmlns:dc="http://purl.org/dc/elements/1.1/" version="1.2" xmlns:svg="http://www.w3.org/2000/svg" xmlns:freecad="http://www.freecadweb.org/wiki/index.php?title=Svg_Namespace" xmlns:rdf="http://www.w3.org/1999/02/22-rdf-syntax-ns#" width="297mm" viewBox="0 0 2970 2100" xmlns:cc="http://creativecommons.org/ns#" xmlns="http://www.w3.org/2000/svg" xmlns:xlink="http://www.w3.org/1999/xlink" height="210mm" baseProfile="tiny" style="background-color:white">
 <title>FreeCAD SVG Export</title>
 <desc>Drawing page: Page006 exported from FreeCAD document: Pedals</desc>
 <defs/>
 <g id="Page006">
  <g stroke-width="1" fill="none" stroke="black" fill-rule="evenodd" stroke-linecap="square" stroke-linejoin="bevel" id="DrawingContent">
   <g font-size="29.1042" stroke-width="1" stroke-opacity="1" fill="none" stroke="#000000" font-style="normal" stroke-linecap="square" stroke-linejoin="bevel" transform="matrix(1,0,0,1,851.099,718.421)" font-family="MS Shell Dlg 2" font-weight="400">
    <rect x="0" width="0" height="0" y="0"/>
   </g>
   <g fill-opacity="1" font-size="29.1042" fill="#ffffff" stroke="none" font-style="normal" transform="matrix(1,0,0,1,851.099,718.421)" font-family="MS Shell Dlg 2" font-weight="400">
    <path fill-rule="evenodd" vector-effect="non-scaling-stroke" d="M350,-425 L350,425 L-350,425 L-350,-425 L350,-425"/>
   </g>
   <g font-size="29.1042" stroke-width="1" stroke-opacity="1" fill="none" stroke="#000000" font-style="normal" stroke-linecap="square" stroke-linejoin="bevel" transform="matrix(1,0,0,1,851.099,718.421)" font-family="MS Shell Dlg 2" font-weight="400">
    <rect x="0" width="0" height="0" y="0"/>
   </g>
   <g fill-opacity="1" font-size="29.1042" fill="#ffffff" stroke="none" font-style="normal" transform="matrix(1,0,0,1,851.099,718.421)" font-family="MS Shell Dlg 2" font-weight="400">
    <path fill-rule="evenodd" vector-effect="non-scaling-stroke" d="M25,-25 C25,-11.1929 13.8071,1.27898e-13 0,1.27898e-13 C-13.8071,1.27898e-13 -25,-11.1929 -25,-25 C-25,-38.8071 -13.8071,-50 0,-50 C13.8071,-50 25,-38.8071 25,-25 "/>
   </g>
   <g font-size="29.1042" stroke-width="1" stroke-opacity="1" fill="none" stroke="#000000" font-style="normal" stroke-linecap="square" stroke-linejoin="bevel" transform="matrix(1,0,0,1,851.099,718.421)" font-family="MS Shell Dlg 2" font-weight="400">
    <rect x="0" width="0" height="0" y="0"/>
   </g>
   <g fill-opacity="1" font-size="29.1042" fill="#ffffff" stroke="none" font-style="normal" transform="matrix(1,0,0,1,851.099,718.421)" font-family="MS Shell Dlg 2" font-weight="400">
    <path fill-rule="evenodd" vector-effect="non-scaling-stroke" d="M25,-225 C25,-211.193 13.8071,-200 0,-200 C-13.8071,-200 -25,-211.193 -25,-225 C-25,-238.807 -13.8071,-250 0,-250 C13.8071,-250 25,-238.807 25,-225 "/>
   </g>
   <g font-size="29.1042" stroke-width="1" stroke-opacity="1" fill="none" stroke="#000000" font-style="normal" stroke-linecap="square" stroke-linejoin="bevel" transform="matrix(1,0,0,1,851.099,718.421)" font-family="MS Shell Dlg 2" font-weight="400">
    <rect x="0" width="0" height="0" y="0"/>
   </g>
   <g font-size="29.1042" stroke-width="2.5" stroke-opacity="1" fill="none" stroke="#000000" font-style="normal" stroke-linecap="round" stroke-linejoin="bevel" transform="matrix(1,0,0,1,851.099,718.421)" font-family="MS Shell Dlg 2" font-weight="400">
    <path fill-rule="evenodd" vector-effect="none" d="M-350,-425 L350,-425"/>
   </g>
   <g font-size="29.1042" stroke-width="2.5" stroke-opacity="1" fill="none" stroke="#000000" font-style="normal" stroke-linecap="round" stroke-linejoin="bevel" transform="matrix(1,0,0,1,851.099,718.421)" font-family="MS Shell Dlg 2" font-weight="400">
    <path fill-rule="evenodd" vector-effect="none" d="M350,-425 L350,425"/>
   </g>
   <g font-size="29.1042" stroke-width="2.5" stroke-opacity="1" fill="none" stroke="#000000" font-style="normal" stroke-linecap="round" stroke-linejoin="bevel" transform="matrix(1,0,0,1,851.099,718.421)" font-family="MS Shell Dlg 2" font-weight="400">
    <path fill-rule="evenodd" vector-effect="none" d="M350,425 L-350,425"/>
   </g>
   <g font-size="29.1042" stroke-width="2.5" stroke-opacity="1" fill="none" stroke="#000000" font-style="normal" stroke-linecap="round" stroke-linejoin="bevel" transform="matrix(1,0,0,1,851.099,718.421)" font-family="MS Shell Dlg 2" font-weight="400">
    <path fill-rule="evenodd" vector-effect="none" d="M-350,425 L-350,-425"/>
   </g>
   <g font-size="29.1042" stroke-width="2.5" stroke-opacity="1" fill="none" stroke="#000000" font-style="normal" stroke-linecap="round" stroke-linejoin="bevel" transform="matrix(1,0,0,1,851.099,718.421)" font-family="MS Shell Dlg 2" font-weight="400">
    <path fill-rule="evenodd" vector-effect="none" d="M25,-225 C25,-211.193 13.8071,-200 0,-200 C-13.8071,-200 -25,-211.193 -25,-225 C-25,-238.807 -13.8071,-250 0,-250 C13.8071,-250 25,-238.807 25,-225 "/>
   </g>
   <g font-size="29.1042" stroke-width="2.5" stroke-opacity="1" fill="none" stroke="#000000" font-style="normal" stroke-linecap="round" stroke-linejoin="bevel" transform="matrix(1,0,0,1,851.099,718.421)" font-family="MS Shell Dlg 2" font-weight="400">
    <path fill-rule="evenodd" vector-effect="none" d="M25,-25 C25,-11.1929 13.8071,1.27898e-13 0,1.27898e-13 C-13.8071,1.27898e-13 -25,-11.1929 -25,-25 C-25,-38.8071 -13.8071,-50 0,-50 C13.8071,-50 25,-38.8071 25,-25 "/>
   </g>
   <g fill-opacity="1" font-size="29.1042" stroke-width="1.25" stroke-opacity="1" fill="#000000" stroke="#080808" font-style="normal" stroke-linecap="round" stroke-linejoin="bevel" transform="matrix(1,0,0,1,851.099,493.421)" font-family="MS Shell Dlg 2" font-weight="400">
    <path fill-rule="evenodd" vector-effect="none" d="M0,6.25 L0,-6.25 M6.25,0 L-6.25,0"/>
   </g>
   <g fill-opacity="1" font-size="29.1042" stroke-width="1.25" stroke-opacity="1" fill="#000000" stroke="#080808" font-style="normal" stroke-linecap="round" stroke-linejoin="bevel" transform="matrix(1,0,0,1,851.099,693.421)" font-family="MS Shell Dlg 2" font-weight="400">
    <path fill-rule="evenodd" vector-effect="none" d="M0,6.25 L0,-6.25 M6.25,0 L-6.25,0"/>
   </g>
   <g font-size="29.1042" stroke-width="1" stroke-opacity="1" fill="none" stroke="#000000" font-style="normal" stroke-linecap="square" stroke-linejoin="bevel" transform="matrix(1,0,0,1,851.099,718.421)" font-family="MS Shell Dlg 2" font-weight="400">
    <rect x="0" width="0" height="0" y="0"/>
   </g>
   <g font-size="29.1042" stroke-width="1" stroke-opacity="1" fill="none" stroke="#000000" font-style="normal" stroke-linecap="square" stroke-linejoin="bevel" transform="matrix(0,-1,1,0,361.259,790.758)" font-family="MS Shell Dlg 2" font-weight="400">
    <text fill-opacity="1" font-size="50" x="4" fill="#000000" xml:space="preserve" stroke="none" font-style="normal" y="70" font-family="osifont" font-weight="400">85,00</text>
   </g>
   <g font-size="29.1042" stroke-width="1.3" stroke-opacity="1" fill="none" stroke="#000000" font-style="normal" stroke-linecap="round" stroke-linejoin="bevel" transform="matrix(1,0,0,1,851.099,718.421)" font-family="MS Shell Dlg 2" font-weight="400">
    <path fill-rule="evenodd" vector-effect="none" d="M-407.49,425 L-407.49,-425 M-350,-425 L-417.89,-425 M-350,425 L-417.89,425"/>
   </g>
   <g fill-opacity="1" font-size="29.1042" stroke-width="1.3" stroke-opacity="1" fill="#000000" stroke="#000000" font-style="normal" stroke-linecap="round" stroke-linejoin="bevel" transform="matrix(1,0,0,1,443.609,293.421)" font-family="MS Shell Dlg 2" font-weight="400">
    <path fill-rule="evenodd" vector-effect="none" d="M0,0 L-5,30 L5,30 L0,0"/>
   </g>
   <g fill-opacity="1" font-size="29.1042" stroke-width="1.3" stroke-opacity="1" fill="#000000" stroke="#000000" font-style="normal" stroke-linecap="round" stroke-linejoin="bevel" transform="matrix(1,0,0,1,443.609,1143.42)" font-family="MS Shell Dlg 2" font-weight="400">
    <path fill-rule="evenodd" vector-effect="none" d="M0,0 L5,-30 L-5,-30 L0,0"/>
   </g>
   <g font-size="29.1042" stroke-width="1" stroke-opacity="1" fill="none" stroke="#000000" font-style="normal" stroke-linecap="square" stroke-linejoin="bevel" transform="matrix(1,0,0,1,851.099,718.421)" font-family="MS Shell Dlg 2" font-weight="400">
    <rect x="0" width="0" height="0" y="0"/>
   </g>
   <g font-size="29.1042" stroke-width="1" stroke-opacity="1" fill="none" stroke="#000000" font-style="normal" stroke-linecap="square" stroke-linejoin="bevel" transform="matrix(1,0,0,1,797.599,162.616)" font-family="MS Shell Dlg 2" font-weight="400">
    <text fill-opacity="1" font-size="50" x="4" fill="#000000" xml:space="preserve" stroke="none" font-style="normal" y="70" font-family="osifont" font-weight="400">70,00</text>
   </g>
   <g font-size="29.1042" stroke-width="1.3" stroke-opacity="1" fill="none" stroke="#000000" font-style="normal" stroke-linecap="round" stroke-linejoin="bevel" transform="matrix(1,0,0,1,851.099,718.421)" font-family="MS Shell Dlg 2" font-weight="400">
    <path fill-rule="evenodd" vector-effect="none" d="M-350,-473.455 L350,-473.455 M350,-425 L350,-483.855 M-350,-425 L-350,-483.855"/>
   </g>
   <g fill-opacity="1" font-size="29.1042" stroke-width="1.3" stroke-opacity="1" fill="#000000" stroke="#000000" font-style="normal" stroke-linecap="round" stroke-linejoin="bevel" transform="matrix(1,0,0,1,1201.1,244.966)" font-family="MS Shell Dlg 2" font-weight="400">
    <path fill-rule="evenodd" vector-effect="none" d="M0,0 L-30,-5 L-30,5 L0,0"/>
   </g>
   <g fill-opacity="1" font-size="29.1042" stroke-width="1.3" stroke-opacity="1" fill="#000000" stroke="#000000" font-style="normal" stroke-linecap="round" stroke-linejoin="bevel" transform="matrix(1,0,0,1,501.099,244.966)" font-family="MS Shell Dlg 2" font-weight="400">
    <path fill-rule="evenodd" vector-effect="none" d="M0,0 L30,5 L30,-5 L0,0"/>
   </g>
   <g font-size="29.1042" stroke-width="1" stroke-opacity="1" fill="none" stroke="#000000" font-style="normal" stroke-linecap="square" stroke-linejoin="bevel" transform="matrix(1,0,0,1,851.099,718.421)" font-family="MS Shell Dlg 2" font-weight="400">
    <rect x="0" width="0" height="0" y="0"/>
   </g>
   <g font-size="29.1042" stroke-width="1" stroke-opacity="1" fill="none" stroke="#000000" font-style="normal" stroke-linecap="square" stroke-linejoin="bevel" transform="matrix(0,-1,1,0,605.379,464.251)" font-family="MS Shell Dlg 2" font-weight="400">
    <text fill-opacity="1" font-size="50" x="4" fill="#000000" xml:space="preserve" stroke="none" font-style="normal" y="70" font-family="osifont" font-weight="400">20,00</text>
   </g>
   <g font-size="29.1042" stroke-width="1.3" stroke-opacity="1" fill="none" stroke="#000000" font-style="normal" stroke-linecap="round" stroke-linejoin="bevel" transform="matrix(1,0,0,1,851.099,718.421)" font-family="MS Shell Dlg 2" font-weight="400">
    <path fill-rule="evenodd" vector-effect="none" d="M-163.37,-425 L-163.37,-225 M0,-225 L-173.77,-225 M0,-425 L-173.77,-425"/>
   </g>
   <g fill-opacity="1" font-size="29.1042" stroke-width="1.3" stroke-opacity="1" fill="#000000" stroke="#000000" font-style="normal" stroke-linecap="round" stroke-linejoin="bevel" transform="matrix(1,0,0,1,687.729,493.421)" font-family="MS Shell Dlg 2" font-weight="400">
    <path fill-rule="evenodd" vector-effect="none" d="M0,0 L5,-30 L-5,-30 L0,0"/>
   </g>
   <g fill-opacity="1" font-size="29.1042" stroke-width="1.3" stroke-opacity="1" fill="#000000" stroke="#000000" font-style="normal" stroke-linecap="round" stroke-linejoin="bevel" transform="matrix(1,0,0,1,687.729,293.421)" font-family="MS Shell Dlg 2" font-weight="400">
    <path fill-rule="evenodd" vector-effect="none" d="M0,0 L-5,30 L5,30 L0,0"/>
   </g>
   <g font-size="29.1042" stroke-width="1" stroke-opacity="1" fill="none" stroke="#000000" font-style="normal" stroke-linecap="square" stroke-linejoin="bevel" transform="matrix(1,0,0,1,851.099,718.421)" font-family="MS Shell Dlg 2" font-weight="400">
    <rect x="0" width="0" height="0" y="0"/>
   </g>
   <g font-size="29.1042" stroke-width="1" stroke-opacity="1" fill="none" stroke="#000000" font-style="normal" stroke-linecap="square" stroke-linejoin="bevel" transform="matrix(0,-1,1,0,607.637,641.676)" font-family="MS Shell Dlg 2" font-weight="400">
    <text fill-opacity="1" font-size="50" x="4" fill="#000000" xml:space="preserve" stroke="none" font-style="normal" y="70" font-family="osifont" font-weight="400">20,00</text>
   </g>
   <g font-size="29.1042" stroke-width="1.3" stroke-opacity="1" fill="none" stroke="#000000" font-style="normal" stroke-linecap="round" stroke-linejoin="bevel" transform="matrix(1,0,0,1,851.099,718.421)" font-family="MS Shell Dlg 2" font-weight="400">
    <path fill-rule="evenodd" vector-effect="none" d="M-161.112,-25 L-161.112,-225 M0,-225 L-171.512,-225 M0,-25 L-171.512,-25"/>
   </g>
   <g fill-opacity="1" font-size="29.1042" stroke-width="1.3" stroke-opacity="1" fill="#000000" stroke="#000000" font-style="normal" stroke-linecap="round" stroke-linejoin="bevel" transform="matrix(1,0,0,1,689.987,493.421)" font-family="MS Shell Dlg 2" font-weight="400">
    <path fill-rule="evenodd" vector-effect="none" d="M0,0 L-5,30 L5,30 L0,0"/>
   </g>
   <g fill-opacity="1" font-size="29.1042" stroke-width="1.3" stroke-opacity="1" fill="#000000" stroke="#000000" font-style="normal" stroke-linecap="round" stroke-linejoin="bevel" transform="matrix(1,0,0,1,689.987,693.421)" font-family="MS Shell Dlg 2" font-weight="400">
    <path fill-rule="evenodd" vector-effect="none" d="M0,0 L5,-30 L-5,-30 L0,0"/>
   </g>
   <g font-size="29.1042" stroke-width="1" stroke-opacity="1" fill="none" stroke="#000000" font-style="normal" stroke-linecap="square" stroke-linejoin="bevel" transform="matrix(1,0,0,1,851.099,718.421)" font-family="MS Shell Dlg 2" font-weight="400">
    <rect x="0" width="0" height="0" y="0"/>
   </g>
   <g font-size="29.1042" stroke-width="1" stroke-opacity="1" fill="none" stroke="#000000" font-style="normal" stroke-linecap="square" stroke-linejoin="bevel" transform="matrix(1,0,0,1,978.372,953.263)" font-family="MS Shell Dlg 2" font-weight="400">
    <text fill-opacity="1" font-size="50" x="4" fill="#000000" xml:space="preserve" stroke="none" font-style="normal" y="70" font-family="osifont" font-weight="400">35,00</text>
   </g>
   <g font-size="29.1042" stroke-width="1.3" stroke-opacity="1" fill="none" stroke="#000000" font-style="normal" stroke-linecap="round" stroke-linejoin="bevel" transform="matrix(1,0,0,1,851.099,718.421)" font-family="MS Shell Dlg 2" font-weight="400">
    <path fill-rule="evenodd" vector-effect="none" d="M350,317.192 L0,317.192 M0,-225 L0,327.592 M350,-225 L350,327.592"/>
   </g>
   <g fill-opacity="1" font-size="29.1042" stroke-width="1.3" stroke-opacity="1" fill="#000000" stroke="#000000" font-style="normal" stroke-linecap="round" stroke-linejoin="bevel" transform="matrix(1,0,0,1,851.099,1035.61)" font-family="MS Shell Dlg 2" font-weight="400">
    <path fill-rule="evenodd" vector-effect="none" d="M0,0 L30,5 L30,-5 L0,0"/>
   </g>
   <g fill-opacity="1" font-size="29.1042" stroke-width="1.3" stroke-opacity="1" fill="#000000" stroke="#000000" font-style="normal" stroke-linecap="round" stroke-linejoin="bevel" transform="matrix(1,0,0,1,1201.1,1035.61)" font-family="MS Shell Dlg 2" font-weight="400">
    <path fill-rule="evenodd" vector-effect="none" d="M0,0 L-30,-5 L-30,5 L0,0"/>
   </g>
   <g fill-opacity="1" font-size="29.1042" fill="#ffffff" stroke="none" font-style="normal" transform="matrix(1,0,0,1,2116.53,734.941)" font-family="MS Shell Dlg 2" font-weight="400">
    <path fill-rule="evenodd" vector-effect="non-scaling-stroke" d="M-268.701,477.65 L-268.701,-216.372 L226.274,-502.145 L268.701,-477.65 L268.701,216.372 L-226.274,502.145 L-268.701,477.65"/>
   </g>
   <g font-size="29.1042" stroke-width="1" stroke-opacity="1" fill="none" stroke="#000000" font-style="normal" stroke-linecap="square" stroke-linejoin="bevel" transform="matrix(1,0,0,1,2116.53,734.941)" font-family="MS Shell Dlg 2" font-weight="400">
    <rect x="0" width="0" height="0" y="0"/>
   </g>
   <g fill-opacity="1" font-size="29.1042" fill="#ffffff" stroke="none" font-style="normal" transform="matrix(1,0,0,1,2116.53,734.941)" font-family="MS Shell Dlg 2" font-weight="400">
    <path fill-rule="evenodd" vector-effect="non-scaling-stroke" d="M268.701,-477.65 L268.701,216.372 L-226.274,502.145 L-226.274,-191.877 L268.701,-477.65"/>
   </g>
   <g font-size="29.1042" stroke-width="1" stroke-opacity="1" fill="none" stroke="#000000" font-style="normal" stroke-linecap="square" stroke-linejoin="bevel" transform="matrix(1,0,0,1,2116.53,734.941)" font-family="MS Shell Dlg 2" font-weight="400">
    <rect x="0" width="0" height="0" y="0"/>
   </g>
   <g fill-opacity="1" font-size="29.1042" fill="#ffffff" stroke="none" font-style="normal" transform="matrix(1,0,0,1,2116.53,734.941)" font-family="MS Shell Dlg 2" font-weight="400">
    <path fill-rule="evenodd" vector-effect="non-scaling-stroke" d="M-268.701,477.65 L-226.274,502.145 L-226.274,-191.877 L-268.701,-216.372 L-268.701,477.65"/>
   </g>
   <g font-size="29.1042" stroke-width="1" stroke-opacity="1" fill="none" stroke="#000000" font-style="normal" stroke-linecap="square" stroke-linejoin="bevel" transform="matrix(1,0,0,1,2116.53,734.941)" font-family="MS Shell Dlg 2" font-weight="400">
    <rect x="0" width="0" height="0" y="0"/>
   </g>
   <g fill-opacity="1" font-size="29.1042" fill="#ffffff" stroke="none" font-style="normal" transform="matrix(1,0,0,1,2116.53,734.941)" font-family="MS Shell Dlg 2" font-weight="400">
    <path fill-rule="evenodd" vector-effect="non-scaling-stroke" d="M-268.701,-216.372 L226.274,-502.145 L268.701,-477.65 L-226.274,-191.877 L-268.701,-216.372"/>
   </g>
   <g font-size="29.1042" stroke-width="1" stroke-opacity="1" fill="none" stroke="#000000" font-style="normal" stroke-linecap="square" stroke-linejoin="bevel" transform="matrix(1,0,0,1,2116.53,734.941)" font-family="MS Shell Dlg 2" font-weight="400">
    <rect x="0" width="0" height="0" y="0"/>
   </g>
   <g fill-opacity="1" font-size="29.1042" fill="#ffffff" stroke="none" font-style="normal" transform="matrix(1,0,0,1,2116.53,734.941)" font-family="MS Shell Dlg 2" font-weight="400">
    <path fill-rule="evenodd" vector-effect="non-scaling-stroke" d="M38.8909,-18.3712 C38.8909,-23.7849 37.0284,-27.9016 33.7132,-29.8156 C30.398,-31.7296 25.9016,-31.2842 21.2132,-28.5774 C14.0633,-24.4494 7.61733,-15.7545 4.88117,-6.54715 C2.145,2.66017 3.65743,10.5667 8.7132,13.4857 C13.769,16.4046 21.3725,13.7612 27.9782,6.7879 C34.5838,-0.185352 38.8909,-10.1151 38.8909,-18.3712 "/>
   </g>
   <g font-size="29.1042" stroke-width="1" stroke-opacity="1" fill="none" stroke="#000000" font-style="normal" stroke-linecap="square" stroke-linejoin="bevel" transform="matrix(1,0,0,1,2116.53,734.941)" font-family="MS Shell Dlg 2" font-weight="400">
    <rect x="0" width="0" height="0" y="0"/>
   </g>
   <g fill-opacity="1" font-size="29.1042" fill="#ffffff" stroke="none" font-style="normal" transform="matrix(1,0,0,1,2116.53,734.941)" font-family="MS Shell Dlg 2" font-weight="400">
    <path fill-rule="evenodd" vector-effect="non-scaling-stroke" d="M38.8909,-181.67 C38.8909,-187.084 37.0284,-191.201 33.7132,-193.115 C30.398,-195.029 25.9016,-194.584 21.2132,-191.877 C14.0633,-187.749 7.61733,-179.054 4.88117,-169.846 C2.145,-160.639 3.65743,-152.733 8.7132,-149.814 C13.769,-146.895 21.3725,-149.538 27.9782,-156.511 C34.5838,-163.485 38.8909,-173.414 38.8909,-181.67 "/>
   </g>
   <g font-size="29.1042" stroke-width="1" stroke-opacity="1" fill="none" stroke="#000000" font-style="normal" stroke-linecap="square" stroke-linejoin="bevel" transform="matrix(1,0,0,1,2116.53,734.941)" font-family="MS Shell Dlg 2" font-weight="400">
    <rect x="0" width="0" height="0" y="0"/>
   </g>
   <g fill-opacity="1" font-size="29.1042" fill="#ffffff" stroke="none" font-style="normal" transform="matrix(1,0,0,1,2116.53,734.941)" font-family="MS Shell Dlg 2" font-weight="400">
    <path fill-rule="evenodd" vector-effect="non-scaling-stroke" d="M21.2132,-28.5774 L38.8909,-18.3712 C38.8909,-10.1151 34.5838,-0.185352 27.9782,6.7879 C21.3725,13.7612 13.769,16.4046 8.7132,13.4857 C3.65743,10.5667 2.145,2.66017 4.88117,-6.54715 C7.61733,-15.7545 14.0633,-24.4494 21.2132,-28.5774 "/>
   </g>
   <g font-size="29.1042" stroke-width="1" stroke-opacity="1" fill="none" stroke="#000000" font-style="normal" stroke-linecap="square" stroke-linejoin="bevel" transform="matrix(1,0,0,1,2116.53,734.941)" font-family="MS Shell Dlg 2" font-weight="400">
    <rect x="0" width="0" height="0" y="0"/>
   </g>
   <g fill-opacity="1" font-size="29.1042" fill="#ffffff" stroke="none" font-style="normal" transform="matrix(1,0,0,1,2116.53,734.941)" font-family="MS Shell Dlg 2" font-weight="400">
    <path fill-rule="evenodd" vector-effect="non-scaling-stroke" d="M21.2132,-191.877 L38.8909,-181.67 C38.8909,-173.414 34.5838,-163.485 27.9782,-156.511 C21.3725,-149.538 13.769,-146.895 8.7132,-149.814 C3.65743,-152.733 2.145,-160.639 4.88117,-169.846 C7.61733,-179.054 14.0633,-187.749 21.2132,-191.877 "/>
   </g>
   <g font-size="29.1042" stroke-width="1" stroke-opacity="1" fill="none" stroke="#000000" font-style="normal" stroke-linecap="square" stroke-linejoin="bevel" transform="matrix(1,0,0,1,2116.53,734.941)" font-family="MS Shell Dlg 2" font-weight="400">
    <rect x="0" width="0" height="0" y="0"/>
   </g>
   <g fill-opacity="1" font-size="29.1042" fill="#ffffff" stroke="none" font-style="normal" transform="matrix(1,0,0,1,2116.53,734.941)" font-family="MS Shell Dlg 2" font-weight="400">
    <path fill-rule="evenodd" vector-effect="non-scaling-stroke" d="M38.8909,-181.67 C38.8909,-187.084 37.0284,-191.201 33.7132,-193.115 C30.398,-195.029 25.9016,-194.584 21.2132,-191.877 L38.8909,-181.67"/>
   </g>
   <g font-size="29.1042" stroke-width="1" stroke-opacity="1" fill="none" stroke="#000000" font-style="normal" stroke-linecap="square" stroke-linejoin="bevel" transform="matrix(1,0,0,1,2116.53,734.941)" font-family="MS Shell Dlg 2" font-weight="400">
    <rect x="0" width="0" height="0" y="0"/>
   </g>
   <g fill-opacity="1" font-size="29.1042" fill="#ffffff" stroke="none" font-style="normal" transform="matrix(1,0,0,1,2116.53,734.941)" font-family="MS Shell Dlg 2" font-weight="400">
    <path fill-rule="evenodd" vector-effect="non-scaling-stroke" d="M38.8909,-18.3712 C38.8909,-23.7849 37.0284,-27.9016 33.7132,-29.8156 C30.398,-31.7296 25.9016,-31.2842 21.2132,-28.5774 L38.8909,-18.3712"/>
   </g>
   <g font-size="29.1042" stroke-width="1" stroke-opacity="1" fill="none" stroke="#000000" font-style="normal" stroke-linecap="square" stroke-linejoin="bevel" transform="matrix(1,0,0,1,2116.53,734.941)" font-family="MS Shell Dlg 2" font-weight="400">
    <rect x="0" width="0" height="0" y="0"/>
   </g>
   <g font-size="29.1042" stroke-width="2.5" stroke-opacity="1" fill="none" stroke="#000000" font-style="normal" stroke-linecap="round" stroke-linejoin="bevel" transform="matrix(1,0,0,1,2116.53,734.941)" font-family="MS Shell Dlg 2" font-weight="400">
    <path fill-rule="evenodd" vector-effect="none" d="M-268.701,-216.372 L-226.274,-191.877"/>
   </g>
   <g font-size="29.1042" stroke-width="2.5" stroke-opacity="1" fill="none" stroke="#000000" font-style="normal" stroke-linecap="round" stroke-linejoin="bevel" transform="matrix(1,0,0,1,2116.53,734.941)" font-family="MS Shell Dlg 2" font-weight="400">
    <path fill-rule="evenodd" vector-effect="none" d="M226.274,-502.145 L268.701,-477.65"/>
   </g>
   <g font-size="29.1042" stroke-width="2.5" stroke-opacity="1" fill="none" stroke="#000000" font-style="normal" stroke-linecap="round" stroke-linejoin="bevel" transform="matrix(1,0,0,1,2116.53,734.941)" font-family="MS Shell Dlg 2" font-weight="400">
    <path fill-rule="evenodd" vector-effect="none" d="M-268.701,-216.372 L226.274,-502.145"/>
   </g>
   <g font-size="29.1042" stroke-width="2.5" stroke-opacity="1" fill="none" stroke="#000000" font-style="normal" stroke-linecap="round" stroke-linejoin="bevel" transform="matrix(1,0,0,1,2116.53,734.941)" font-family="MS Shell Dlg 2" font-weight="400">
    <path fill-rule="evenodd" vector-effect="none" d="M-226.274,-191.877 L268.701,-477.65"/>
   </g>
   <g font-size="29.1042" stroke-width="2.5" stroke-opacity="1" fill="none" stroke="#000000" font-style="normal" stroke-linecap="round" stroke-linejoin="bevel" transform="matrix(1,0,0,1,2116.53,734.941)" font-family="MS Shell Dlg 2" font-weight="400">
    <path fill-rule="evenodd" vector-effect="none" d="M268.701,-477.65 L268.701,216.372"/>
   </g>
   <g font-size="29.1042" stroke-width="2.5" stroke-opacity="1" fill="none" stroke="#000000" font-style="normal" stroke-linecap="round" stroke-linejoin="bevel" transform="matrix(1,0,0,1,2116.53,734.941)" font-family="MS Shell Dlg 2" font-weight="400">
    <path fill-rule="evenodd" vector-effect="none" d="M-268.701,477.65 L-226.274,502.145"/>
   </g>
   <g font-size="29.1042" stroke-width="2.5" stroke-opacity="1" fill="none" stroke="#000000" font-style="normal" stroke-linecap="round" stroke-linejoin="bevel" transform="matrix(1,0,0,1,2116.53,734.941)" font-family="MS Shell Dlg 2" font-weight="400">
    <path fill-rule="evenodd" vector-effect="none" d="M268.701,216.372 L-226.274,502.145"/>
   </g>
   <g font-size="29.1042" stroke-width="2.5" stroke-opacity="1" fill="none" stroke="#000000" font-style="normal" stroke-linecap="round" stroke-linejoin="bevel" transform="matrix(1,0,0,1,2116.53,734.941)" font-family="MS Shell Dlg 2" font-weight="400">
    <path fill-rule="evenodd" vector-effect="none" d="M-268.701,477.65 L-268.701,-216.372"/>
   </g>
   <g font-size="29.1042" stroke-width="2.5" stroke-opacity="1" fill="none" stroke="#000000" font-style="normal" stroke-linecap="round" stroke-linejoin="bevel" transform="matrix(1,0,0,1,2116.53,734.941)" font-family="MS Shell Dlg 2" font-weight="400">
    <path fill-rule="evenodd" vector-effect="none" d="M-226.274,502.145 L-226.274,-191.877"/>
   </g>
   <g font-size="29.1042" stroke-width="2.5" stroke-opacity="1" fill="none" stroke="#000000" font-style="normal" stroke-linecap="round" stroke-linejoin="bevel" transform="matrix(1,0,0,1,2116.53,734.941)" font-family="MS Shell Dlg 2" font-weight="400">
    <path fill-rule="evenodd" vector-effect="none" d="M38.8909,-181.67 C38.8909,-187.084 37.0284,-191.201 33.7132,-193.115 "/>
   </g>
   <g font-size="29.1042" stroke-width="2.5" stroke-opacity="1" fill="none" stroke="#000000" font-style="normal" stroke-linecap="round" stroke-linejoin="bevel" transform="matrix(1,0,0,1,2116.53,734.941)" font-family="MS Shell Dlg 2" font-weight="400">
    <path fill-rule="evenodd" vector-effect="none" d="M33.7132,-193.115 C26.8096,-197.101 15.6168,-190.638 8.7132,-178.681 C1.80964,-166.724 1.80964,-153.799 8.7132,-149.814 "/>
   </g>
   <g font-size="29.1042" stroke-width="2.5" stroke-opacity="1" fill="none" stroke="#000000" font-style="normal" stroke-linecap="round" stroke-linejoin="bevel" transform="matrix(1,0,0,1,2116.53,734.941)" font-family="MS Shell Dlg 2" font-weight="400">
    <path fill-rule="evenodd" vector-effect="none" d="M8.7132,-149.814 C13.769,-146.895 21.3725,-149.538 27.9782,-156.511 C34.5838,-163.485 38.8909,-173.414 38.8909,-181.67 "/>
   </g>
   <g font-size="29.1042" stroke-width="2.5" stroke-opacity="1" fill="none" stroke="#000000" font-style="normal" stroke-linecap="round" stroke-linejoin="bevel" transform="matrix(1,0,0,1,2116.53,734.941)" font-family="MS Shell Dlg 2" font-weight="400">
    <path fill-rule="evenodd" vector-effect="none" d="M38.8909,-18.3712 C38.8909,-23.7849 37.0284,-27.9016 33.7132,-29.8156 "/>
   </g>
   <g font-size="29.1042" stroke-width="2.5" stroke-opacity="1" fill="none" stroke="#000000" font-style="normal" stroke-linecap="round" stroke-linejoin="bevel" transform="matrix(1,0,0,1,2116.53,734.941)" font-family="MS Shell Dlg 2" font-weight="400">
    <path fill-rule="evenodd" vector-effect="none" d="M33.7132,-29.8156 C26.8096,-33.8014 15.6168,-27.3392 8.7132,-15.3818 C1.80964,-3.42453 1.80964,9.4999 8.7132,13.4857 "/>
   </g>
   <g font-size="29.1042" stroke-width="2.5" stroke-opacity="1" fill="none" stroke="#000000" font-style="normal" stroke-linecap="round" stroke-linejoin="bevel" transform="matrix(1,0,0,1,2116.53,734.941)" font-family="MS Shell Dlg 2" font-weight="400">
    <path fill-rule="evenodd" vector-effect="none" d="M8.7132,13.4857 C13.769,16.4046 21.3725,13.7612 27.9782,6.7879 C34.5838,-0.185352 38.8909,-10.1151 38.8909,-18.3712 "/>
   </g>
   <g font-size="29.1042" stroke-width="2.5" stroke-opacity="1" fill="none" stroke="#000000" font-style="normal" stroke-linecap="round" stroke-linejoin="bevel" transform="matrix(1,0,0,1,2116.53,734.941)" font-family="MS Shell Dlg 2" font-weight="400">
    <path fill-rule="evenodd" vector-effect="none" d="M21.2132,-191.877 L38.8909,-181.67"/>
   </g>
   <g font-size="29.1042" stroke-width="2.5" stroke-opacity="1" fill="none" stroke="#000000" font-style="normal" stroke-linecap="round" stroke-linejoin="bevel" transform="matrix(1,0,0,1,2116.53,734.941)" font-family="MS Shell Dlg 2" font-weight="400">
    <path fill-rule="evenodd" vector-effect="none" d="M21.2132,-28.5774 L38.8909,-18.3712"/>
   </g>
   <g font-size="29.1042" stroke-width="1" stroke-opacity="1" fill="none" stroke="#000000" font-style="normal" stroke-linecap="square" stroke-linejoin="bevel" transform="matrix(1,0,0,1,468.398,1423.88)" font-family="MS Shell Dlg 2" font-weight="400">
    <text fill-opacity="1" font-size="50" x="4" fill="#000000" xml:space="preserve" stroke="none" font-style="normal" y="70" font-family="osifont" font-weight="400">Накладки на педали из фонеры 6мм</text>
   </g>
  </g>
 </g>
</svg>
